sfk_cyclingleg_x_-0.11_y_-0.05_states
version=1
nRows=9
nColumns=53
inDegrees=yes

# SIMM Motion File Header:
name sfk_cyclingleg_x_-0.11_y_-0.05_states
datacolumns 53
datarows 9
otherdata 1
range 0.85473893 0.85648617
endheader
time	/jointset/bb/crank_angle/value	/jointset/bb/crank_angle/speed	/jointset/spindle/pedal_angle_r/value	/jointset/spindle/pedal_angle_r/speed	/jointset/ground_pelvis/pelvis_tilt/value	/jointset/ground_pelvis/pelvis_tilt/speed	/jointset/ground_pelvis/pelvis_list/value	/jointset/ground_pelvis/pelvis_list/speed	/jointset/ground_pelvis/pelvis_rotation/value	/jointset/ground_pelvis/pelvis_rotation/speed	/jointset/ground_pelvis/pelvis_tx/value	/jointset/ground_pelvis/pelvis_tx/speed	/jointset/ground_pelvis/pelvis_ty/value	/jointset/ground_pelvis/pelvis_ty/speed	/jointset/ground_pelvis/pelvis_tz/value	/jointset/ground_pelvis/pelvis_tz/speed	/jointset/hip_r/hip_angle_r/value	/jointset/hip_r/hip_angle_r/speed	/jointset/hip_r/hip_adduction_r/value	/jointset/hip_r/hip_adduction_r/speed	/jointset/hip_r/hip_rotation_r/value	/jointset/hip_r/hip_rotation_r/speed	/jointset/knee_r/knee_angle_r/value	/jointset/knee_r/knee_angle_r/speed	/jointset/knee_r/tib_tx_r/value	/jointset/knee_r/tib_tx_r/speed	/jointset/knee_r/tib_ty_r/value	/jointset/knee_r/tib_ty_r/speed	/jointset/tib_pat_r/pat_angle_r/value	/jointset/tib_pat_r/pat_angle_r/speed	/jointset/tib_pat_r/pat_tx_r/value	/jointset/tib_pat_r/pat_tx_r/speed	/jointset/tib_pat_r/pat_ty_r/value	/jointset/tib_pat_r/pat_ty_r/speed	/jointset/ankle_r/ankle_angle_r/value	/jointset/ankle_r/ankle_angle_r/speed	/jointset/subtalar_r/subtalar_angle_r/value	/jointset/subtalar_r/subtalar_angle_r/speed	/jointset/mtp_r/mtp_angle_r/value	/jointset/mtp_r/mtp_angle_r/speed	/forceset/bifemlh_r/activation	/forceset/bifemlh_r/fiber_length	/forceset/bifemsh_r/activation	/forceset/bifemsh_r/fiber_length	/forceset/glut_max2_r/activation	/forceset/glut_max2_r/fiber_length	/forceset/vas_int_r/activation	/forceset/vas_int_r/fiber_length	/forceset/med_gas_r/activation	/forceset/med_gas_r/fiber_length	/forceset/tib_ant_r/activation	/forceset/tib_ant_r/fiber_length
      0.85473893	   -420.52805735	   -480.13863232	    427.69607507	    572.34789487	      0.00000000	     -0.00000000	      0.00000000	      0.00000000	     -0.00000000	     -0.00000000	     -0.11000000	     -0.00000000	     -0.05000000	     -0.00000000	     -0.00000000	     -0.00000000	     76.15273484	   -152.43804990	      4.28678205	      1.76645104	     -1.66456902	     21.65522863	    -91.22499339	    274.24758552	      0.00365410	      0.03950067	     -0.48636100	      0.09514605	     17.57104908	     -0.99099297	      0.03228854	      0.10610394	     -0.02274606	      0.01084534	     22.76575354	    -30.98306484	      0.00000000	      0.00000000	      0.00000000	      0.00000000	     -0.08460552	      0.13921941	     -0.08460552	      0.15116285	     -0.08460552	      0.15323707	     -0.08460552	      0.14896156	     -0.08460552	      0.13534532	     -0.08460552	      0.11586025
      0.85509408	   -420.69858021	   -480.13863232	    427.89933223	    572.26841647	      0.00000000	     -0.00000000	      0.00000000	      0.00000000	     -0.00000000	     -0.00000000	     -0.11000000	     -0.00000000	     -0.05000000	     -0.00000000	     -0.00000000	     -0.00000000	     76.09851871	   -152.87284822	      4.28740868	      1.76235017	     -1.65687721	     21.66019192	    -91.12755484	    274.46475231	      0.00366810	      0.03933612	     -0.48632719	      0.09522011	     17.57069779	     -0.98727114	      0.03232622	      0.10608893	     -0.02274222	      0.01079499	     22.75477471	    -30.84273127	      0.00000000	      0.00000000	      0.00000000	      0.00000000	     -0.08465124	      0.13920722	     -0.08465124	      0.15119872	     -0.08465124	      0.15321302	     -0.08465124	      0.14890837	     -0.08465124	      0.13534896	     -0.08465124	      0.11587000
      0.85522796	   -420.76286194	   -480.13863232	    427.97594645	    572.23855318	      0.00000000	     -0.00000000	      0.00000000	      0.00000000	     -0.00000000	     -0.00000000	     -0.11000000	     -0.00000000	     -0.05000000	     -0.00000000	     -0.00000000	     -0.00000000	     76.07804089	   -153.03640156	      4.28764453	      1.76079803	     -1.65397718	     21.66205403	    -91.09080360	    274.54629828	      0.00367336	      0.03927397	     -0.48631444	      0.09524786	     17.57056570	     -0.98584793	      0.03234043	      0.10608312	     -0.02274078	      0.01077593	     22.75064898	    -30.78976336	      0.00000000	      0.00000000	      0.00000000	      0.00000000	     -0.08466848	      0.13920262	     -0.08466848	      0.15121227	     -0.08466848	      0.15320393	     -0.08466848	      0.14888829	     -0.08466848	      0.13535534	     -0.08466848	      0.11587367
      0.85548064	   -420.88418536	   -480.13863232	    428.12053495	    572.18233547	      0.00000000	     -0.00000000	      0.00000000	      0.00000000	     -0.00000000	     -0.00000000	     -0.11000000	     -0.00000000	     -0.05000000	     -0.00000000	     -0.00000000	     -0.00000000	     76.03933207	   -153.34456231	      4.28808908	      1.75785928	     -1.64850308	     21.66555539	    -91.02141070	    274.69973014	      0.00368327	      0.03915648	     -0.48629037	      0.09529999	     17.57031694	     -0.98313160	      0.03236723	      0.10607193	     -0.02273806	      0.01073984	     22.74288154	    -30.68969448	      0.00000000	      0.00000000	      0.00000000	      0.00000000	     -0.08470101	      0.13919391	     -0.08470101	      0.15123790	     -0.08470101	      0.15318673	     -0.08470101	      0.14885037	     -0.08470101	      0.13537439	     -0.08470101	      0.11588057
      0.85582545	   -421.04974042	   -480.13863232	    428.31781413	    572.10592840	      0.00000000	     -0.00000000	      0.00000000	      0.00000000	     -0.00000000	     -0.00000000	     -0.11000000	     -0.00000000	     -0.05000000	     -0.00000000	     -0.00000000	     -0.00000000	     75.98638548	   -153.76396408	      4.28869451	      1.75382963	     -1.64103183	     21.67030592	    -90.92665641	    274.90809742	      0.00369675	      0.03899578	     -0.48625750	      0.09537059	     17.56997860	     -0.97936114	      0.03240380	      0.10605617	     -0.02273436	      0.01069033	     22.73232309	    -30.55293556	      0.00000000	      0.00000000	      0.00000000	      0.00000000	     -0.08474541	      0.13918198	     -0.08474541	      0.15127295	     -0.08474541	      0.15316318	     -0.08474541	      0.14879856	     -0.08474541	      0.13548177	     -0.08474541	      0.11588995
      0.85587664	   -421.07431939	   -480.13863232	    428.34710073	    572.09461481	      0.00000000	     -0.00000000	      0.00000000	      0.00000000	     -0.00000000	     -0.00000000	     -0.11000000	     -0.00000000	     -0.05000000	     -0.00000000	     -0.00000000	     -0.00000000	     75.97851250	   -153.82612121	      4.28878427	      1.75322946	     -1.63992248	     21.67100854	    -90.91258270	    274.93893392	      0.00369874	      0.03897188	     -0.48625261	      0.09538103	     17.56992848	     -0.97879508	      0.03240923	      0.10605378	     -0.02273382	      0.01068296	     22.73075956	    -30.53261149	      0.00000000	      0.00000000	      0.00000000	      0.00000000	     -0.08475200	      0.13918021	     -0.08475200	      0.15127817	     -0.08475200	      0.15315968	     -0.08475200	      0.14879086	     -0.08475200	      0.13545599	     -0.08475200	      0.11589134
      0.85600439	   -421.13565770	   -480.13863232	    428.42018473	    572.06641498	      0.00000000	     -0.00000000	      0.00000000	      0.00000000	     -0.00000000	     -0.00000000	     -0.11000000	     -0.00000000	     -0.05000000	     -0.00000000	     -0.00000000	     -0.00000000	     75.95885112	   -153.98111533	      4.28900816	      1.75172955	     -1.63715387	     21.67275899	    -90.87745399	    275.01577723	      0.00370372	      0.03891220	     -0.48624043	      0.09540700	     17.56980352	     -0.97737532	      0.03242278	      0.10604778	     -0.02273245	      0.01066453	     22.72686223	    -30.48186871	      0.00000000	      0.00000000	      0.00000000	      0.00000000	     -0.08476845	      0.13917578	     -0.08476845	      0.15129119	     -0.08476845	      0.15315093	     -0.08476845	      0.14877164	     -0.08476845	      0.13544766	     -0.08476845	      0.11589480
      0.85635434	   -421.30367775	   -480.13863232	    428.62036058	    571.98941685	      0.00000000	     -0.00000000	      0.00000000	      0.00000000	     -0.00000000	     -0.00000000	     -0.11000000	     -0.00000000	     -0.05000000	     -0.00000000	     -0.00000000	     -0.00000000	     75.90489269	   -154.40478263	      4.28962044	      1.74760526	     -1.62956885	     21.67753233	    -90.78117805	    275.22545754	      0.00371730	      0.03874843	     -0.48620703	      0.09547772	     17.56946219	     -0.97343427	      0.03245989	      0.10603093	     -0.02272873	      0.01061384	     22.71621972	    -30.34270618	      0.00000000	      0.00000000	      0.00000000	      0.00000000	     -0.08481350	      0.13916361	     -0.08481350	      0.15132693	     -0.08481350	      0.15312688	     -0.08481350	      0.14871894	     -0.08481350	      0.13545121	     -0.08481350	      0.11590426
      0.85648617	   -421.36697777	   -480.13863232	    428.69576802	    571.96050259	      0.00000000	     -0.00000000	      0.00000000	      0.00000000	     -0.00000000	     -0.00000000	     -0.11000000	     -0.00000000	     -0.05000000	     -0.00000000	     -0.00000000	     -0.00000000	     75.88452593	   -154.56405423	      4.28985073	      1.74604552	     -1.62671084	     21.67932252	    -90.74488798	    275.30414452	      0.00372241	      0.03868661	     -0.48619444	      0.09550420	     17.56933395	     -0.97192972	      0.03247387	      0.10602444	     -0.02272733	      0.01059466	     22.71222289	    -30.29021513	      0.00000000	      0.00000000	      0.00000000	      0.00000000	     -0.08483047	      0.13915902	     -0.08483047	      0.15134043	     -0.08483047	      0.15311780	     -0.08483047	      0.14869907	     -0.08483047	      0.13545754	     -0.08483047	      0.11590781
